<svg width="380" height="260" viewBox="0 0 380 260" xmlns="http://www.w3.org/2000/svg" role="img"><title>Engineering</title><desc>Icon representing the Engineering faculty with a gear symbol</desc>
<circle cx="190" cy="130" r="110" fill="#e8590c"/>
<g fill="#ffffff">
<path d="M190 60 l10 20 a70 70 0 0 1 20 8 l22 -8 12 20 -16 16 a70 70 0 0 1 0 22 l16 16 -12 20 -22 -8 a70 70 0 0 1 -20 8 l-10 20 -20 0 -10 -20 a70 70 0 0 1 -20 -8 l-22 8 -12 -20 16 -16 a70 70 0 0 1 0 -22 l-16 -16 12 -20 22 8 a70 70 0 0 1 20 -8 z" opacity="0.95"/>
<circle cx="190" cy="130" r="26" fill="#e8590c"/>
</g>
</svg>
